<svg width="48" height="48" viewBox="160 340 250 310" xmlns="http://www.w3.org/2000/svg"><defs/><path fill="#00acee" transform="matrix(1.8260603562260762 0 0 1.8260603562260762 -52.47521127172236 -12.883280963411366)" d="M 246.75622785798 279.91802327185 C 247.25622785798 318.41802327185 215.95622785798 350.31802327185 177.45622785798 350.51802327185 C 161.95622785798 350.61802327185 147.55622785798 345.51802327185 135.95622785798 337.01802327185 C 128.25622785798 331.31802327185 130.25622785798 319.21802327185 139.45622785798 316.51802327185 C 155.35622785798 311.81802327185 165.95622785798 302.11802327185 172.65622785798 293.61802327185 C 176.25622785798 288.91802327185 171.05622785798 285.41802327185 167.35622785798 287.21802327185 C 155.25622785798 293.11802327185 143.75622785798 293.71802327185 134.25622785798 292.11802327185 C 116.25622785798 289.11802327185 106.05622785798 270.11802327185 113.15622785798 253.41802327185 C 123.85622785798 228.61802327185 148.45622785798 211.21802327185 177.15622785798 211.21802327185 C 215.25622785798 211.21802327185 246.25622785798 241.91802327185 246.75622785798 279.91802327185 Z"/><path fill="#aa36a5" transform="matrix(1.8260603562260762 0 0 1.8260603562260762 -52.47521127172236 -12.883280963411366)" d="M 170.15622785798 283.21802327185 L 189.25622785798 294.41802327185 L 163.75622785798 316.91802327185 L 163.75622785798 279.51802327185 L 239.65622785798 233.61802327185 Z"/><path fill="#aa36a5" transform="matrix(1.8260603562260762 0 0 1.8260603562260762 -52.47521127172236 -12.883280963411366)" d="M 236.55622785798 234.31802327185 L 220.15622785798 244.31802327185 L 210.65622785798 250.11802327185 L 201.25622785798 255.91802327185 L 182.45622785798 267.61802327185 C 176.15622785798 271.51802327185 169.95622785798 275.41802327185 163.65622785798 279.41802327185 L 130.35622785798 259.91802327185 L 236.55622785798 234.31802327185 Z"/><path fill="#aa36a5" transform="matrix(1.8260603562260762 0 0 1.8260603562260762 -52.47521127172236 -12.883280963411366)" d="M 238.85622785798 235.31802327185 L 207.65622785798 305.11802327185 L 189.25622785798 294.41802327185 C 189.25622785798 294.41802327185 189.25622785798 294.41802327185 189.25622785798 294.41802327185 C 183.15622785798 290.61802327185 177.05622785798 286.91802327185 170.95622785798 283.21802327185 L 187.95622785798 271.41802327185 C 193.75622785798 267.31802327185 199.65622785798 263.31802327185 205.45622785798 259.11802327185 L 222.85622785798 246.81802327185 C 228.15622785798 243.01802327185 233.55622785798 239.21802327185 238.85622785798 235.31802327185 Z"/><g opacity="0.6" transform="matrix(1.8260603562260762 0 0 1.8260603562260762 -52.47521127172236 -12.883280963411366)"><path fill="#ffffff" d="M 170.15622785798 283.21802327185 L 189.25622785798 294.41802327185 L 163.75622785798 316.91802327185 L 163.75622785798 279.51802327185 L 239.65622785798 233.61802327185 Z"/></g></svg>